<?xml version="1.0" encoding="utf-8"?>
<!-- Generator: Adobe Illustrator 15.1.0, SVG Export Plug-In . SVG Version: 6.00 Build 0)  -->
<!DOCTYPE svg PUBLIC "-//W3C//DTD SVG 1.1//EN" "http://www.w3.org/Graphics/SVG/1.1/DTD/svg11.dtd">
<svg version="1.1" id="Layer_1" xmlns="http://www.w3.org/2000/svg" xmlns:xlink="http://www.w3.org/1999/xlink" x="0px" y="0px"
	 width="170px" height="70px" viewBox="0 0 170 70" enable-background="new 0 0 170 70" xml:space="preserve">
<g>
	<g>
		<path fill="#0D72B9" d="M70.047,45.469c1.112,0,2.104-0.153,2.979-0.461c0.874-0.307,1.613-0.737,2.22-1.291
			c0.605-0.553,1.068-1.215,1.387-1.983s0.478-1.614,0.478-2.536v-13.39h3.616v13.39c0,1.271-0.247,2.449-0.74,3.535
			c-0.494,1.087-1.199,2.027-2.117,2.821s-2.039,1.417-3.363,1.868s-2.81,0.676-4.459,0.676c-1.648,0-3.135-0.225-4.459-0.676
			c-1.323-0.451-2.447-1.074-3.372-1.868s-1.633-1.734-2.126-2.821c-0.494-1.086-0.74-2.264-0.74-3.535v-13.39h3.616v13.374
			c0,0.922,0.159,1.768,0.478,2.537c0.318,0.768,0.78,1.43,1.386,1.982c0.605,0.554,1.35,0.986,2.229,1.299
			C67.939,45.313,68.936,45.469,70.047,45.469z"/>
		<path fill="#0D72B9" d="M90.861,38.644v9.192h-3.616V25.808h7.588c1.698,0,3.166,0.141,4.403,0.423
			c1.236,0.282,2.257,0.689,3.063,1.222c0.806,0.533,1.402,1.176,1.789,1.929c0.387,0.753,0.581,1.597,0.581,2.529
			c0,0.779-0.149,1.506-0.45,2.183c-0.3,0.677-0.733,1.284-1.302,1.822s-1.262,0.999-2.079,1.384
			c-0.818,0.385-1.746,0.668-2.783,0.854c0.475,0.246,0.875,0.559,1.199,0.938l7.832,8.746h-3.223c-0.662,0-1.149-0.209-1.461-0.629
			l-6.97-7.871c-0.213-0.246-0.44-0.424-0.685-0.531c-0.243-0.107-0.621-0.161-1.133-0.161H90.861z M90.861,36.477h3.821
			c1.05,0,1.977-0.105,2.782-0.315s1.48-0.507,2.023-0.892s0.953-0.843,1.228-1.376s0.412-1.122,0.412-1.768
			c0-1.312-0.524-2.3-1.573-2.967c-1.05-0.666-2.623-0.999-4.722-0.999h-3.972V36.477z"/>
		<path fill="#0D72B9" d="M121.08,45.469c1.112,0,2.104-0.153,2.979-0.461c0.874-0.307,1.614-0.737,2.22-1.291
			s1.068-1.215,1.387-1.983s0.478-1.614,0.478-2.536v-13.39h3.616v13.39c0,1.271-0.247,2.449-0.74,3.535
			c-0.494,1.087-1.199,2.027-2.117,2.821s-2.039,1.417-3.363,1.868s-2.81,0.676-4.459,0.676c-1.648,0-3.135-0.225-4.459-0.676
			c-1.323-0.451-2.447-1.074-3.371-1.868c-0.926-0.794-1.634-1.734-2.127-2.821c-0.494-1.086-0.74-2.264-0.74-3.535v-13.39h3.615
			v13.374c0,0.922,0.16,1.768,0.479,2.537c0.318,0.768,0.78,1.43,1.387,1.982c0.605,0.554,1.349,0.986,2.229,1.299
			C118.973,45.313,119.969,45.469,121.08,45.469z"/>
		<path fill="#0D72B9" d="M151.918,40.65c0.137,0.271,0.274,0.54,0.412,0.807c0.125-0.277,0.256-0.551,0.394-0.822
			c0.137-0.271,0.287-0.531,0.449-0.777l9.105-13.542c0.149-0.236,0.315-0.379,0.496-0.431s0.434-0.077,0.759-0.077h2.68v22.028
			h-3.186V31.649c0-0.215,0.007-0.446,0.019-0.691c0.013-0.246,0.031-0.497,0.057-0.753l-9.199,13.774
			c-0.287,0.461-0.724,0.691-1.312,0.691h-0.524c-0.587,0-1.024-0.23-1.312-0.691l-9.404-13.821
			c0.037,0.267,0.065,0.528,0.084,0.784s0.028,0.492,0.028,0.707v16.187h-3.186V25.808h2.68c0.324,0,0.574,0.025,0.749,0.077
			s0.344,0.195,0.506,0.431l9.273,13.558C151.637,40.119,151.78,40.379,151.918,40.65z"/>
	</g>
	<g>
		<path fill="#808080" d="M28.117,61.411h-2.318V50.152h2.318V61.411z"/>
		<path fill="#808080" d="M32.354,50.164c0.072,0.008,0.135,0.023,0.189,0.047c0.054,0.023,0.106,0.057,0.158,0.102
			c0.052,0.043,0.108,0.102,0.172,0.174l6.508,7.537c-0.018-0.182-0.031-0.359-0.043-0.537c-0.012-0.176-0.018-0.34-0.018-0.49
			v-6.844h2.035v11.259h-1.185c-0.184,0-0.337-0.027-0.46-0.082c-0.123-0.054-0.241-0.146-0.356-0.276l-6.481-7.498
			c0.018,0.166,0.03,0.331,0.039,0.494c0.008,0.164,0.013,0.313,0.013,0.448v6.914H30.89V50.152h1.211
			C32.197,50.152,32.282,50.156,32.354,50.164z"/>
		<path fill="#808080" d="M51.949,50.152v1.666h-5.512v3.332h4.653v1.675h-4.653v4.586H44.12V50.152H51.949z"/>
		<path fill="#808080" d="M65.566,55.781c0,0.826-0.15,1.59-0.451,2.293c-0.301,0.704-0.726,1.313-1.274,1.826
			c-0.55,0.514-1.211,0.915-1.983,1.203s-1.632,0.432-2.576,0.432c-0.938,0-1.794-0.144-2.566-0.432
			c-0.773-0.288-1.436-0.689-1.987-1.203c-0.553-0.514-0.98-1.122-1.284-1.826c-0.303-0.703-0.455-1.467-0.455-2.293
			c0-0.824,0.152-1.59,0.455-2.293c0.304-0.703,0.731-1.312,1.284-1.826c0.552-0.514,1.214-0.914,1.987-1.203
			c0.772-0.287,1.628-0.432,2.566-0.432c0.63,0,1.223,0.066,1.777,0.199c0.556,0.132,1.064,0.318,1.528,0.561
			c0.464,0.241,0.88,0.534,1.249,0.879c0.369,0.346,0.683,0.731,0.94,1.156c0.258,0.426,0.453,0.889,0.588,1.387
			S65.566,55.231,65.566,55.781z M63.205,55.781c0-0.617-0.092-1.172-0.274-1.662c-0.184-0.49-0.443-0.906-0.781-1.25
			c-0.338-0.342-0.749-0.604-1.232-0.786s-1.028-0.272-1.636-0.272c-0.606,0-1.151,0.091-1.635,0.272
			c-0.484,0.182-0.896,0.444-1.236,0.786c-0.341,0.344-0.603,0.76-0.786,1.25c-0.183,0.49-0.274,1.045-0.274,1.662
			c0,0.618,0.092,1.172,0.274,1.663c0.184,0.49,0.445,0.905,0.786,1.245c0.34,0.34,0.752,0.602,1.236,0.783
			c0.483,0.182,1.028,0.272,1.635,0.272c0.607,0,1.152-0.091,1.636-0.272s0.895-0.443,1.232-0.783s0.598-0.755,0.781-1.245
			C63.113,56.953,63.205,56.399,63.205,55.781z"/>
		<path fill="#808080" d="M78.384,52.199c-0.068,0.109-0.142,0.189-0.219,0.238s-0.173,0.074-0.288,0.074
			c-0.12,0-0.25-0.041-0.391-0.121c-0.14-0.08-0.308-0.17-0.502-0.269s-0.422-0.188-0.683-0.269s-0.568-0.121-0.923-0.121
			c-0.32,0-0.601,0.035-0.842,0.105c-0.24,0.07-0.441,0.168-0.604,0.292s-0.285,0.274-0.365,0.448s-0.12,0.364-0.12,0.572
			c0,0.264,0.082,0.484,0.245,0.661s0.379,0.327,0.647,0.452c0.27,0.124,0.575,0.236,0.919,0.334c0.344,0.1,0.695,0.204,1.056,0.316
			c0.361,0.111,0.713,0.24,1.057,0.389c0.343,0.148,0.649,0.335,0.918,0.561c0.27,0.226,0.485,0.502,0.648,0.829
			s0.245,0.725,0.245,1.191c0,0.509-0.097,0.985-0.288,1.429s-0.472,0.831-0.841,1.16c-0.369,0.33-0.82,0.59-1.353,0.779
			s-1.142,0.283-1.829,0.283c-0.395,0-0.783-0.035-1.167-0.104s-0.751-0.17-1.104-0.3c-0.352-0.13-0.683-0.285-0.991-0.467
			c-0.31-0.182-0.584-0.385-0.824-0.607l0.678-1.005c0.058-0.073,0.132-0.134,0.224-0.183c0.091-0.049,0.188-0.074,0.292-0.074
			c0.143,0,0.297,0.053,0.463,0.16c0.166,0.105,0.363,0.225,0.593,0.354c0.229,0.13,0.496,0.248,0.803,0.354
			s0.674,0.159,1.104,0.159c0.658,0,1.167-0.141,1.528-0.424c0.36-0.283,0.541-0.689,0.541-1.219c0-0.296-0.082-0.537-0.245-0.725
			c-0.163-0.187-0.379-0.344-0.648-0.471c-0.269-0.127-0.575-0.234-0.918-0.322c-0.344-0.089-0.693-0.186-1.048-0.289
			c-0.355-0.104-0.704-0.229-1.047-0.373c-0.344-0.146-0.65-0.335-0.919-0.568c-0.27-0.234-0.485-0.525-0.648-0.877
			c-0.163-0.35-0.245-0.782-0.245-1.296c0-0.41,0.091-0.81,0.271-1.199c0.181-0.39,0.442-0.734,0.786-1.036
			c0.343-0.301,0.767-0.541,1.271-0.723s1.082-0.273,1.734-0.273c0.732,0,1.407,0.104,2.026,0.312
			c0.618,0.208,1.145,0.499,1.579,0.872L78.384,52.199z"/>
		<path fill="#808080" d="M93.029,55.781c0,0.826-0.149,1.59-0.45,2.293c-0.3,0.704-0.726,1.313-1.274,1.826
			c-0.55,0.514-1.211,0.915-1.983,1.203s-1.632,0.432-2.575,0.432c-0.939,0-1.795-0.144-2.567-0.432s-1.436-0.689-1.987-1.203
			c-0.553-0.514-0.98-1.122-1.283-1.826c-0.304-0.703-0.455-1.467-0.455-2.293c0-0.824,0.151-1.59,0.455-2.293
			c0.303-0.703,0.73-1.312,1.283-1.826c0.552-0.514,1.215-0.914,1.987-1.203c0.772-0.287,1.628-0.432,2.567-0.432
			c0.629,0,1.222,0.066,1.777,0.199c0.555,0.132,1.064,0.318,1.527,0.561c0.464,0.241,0.88,0.534,1.249,0.879
			c0.369,0.346,0.683,0.731,0.94,1.156c0.258,0.426,0.453,0.889,0.588,1.387S93.029,55.231,93.029,55.781z M90.669,55.781
			c0-0.617-0.091-1.172-0.274-1.662s-0.443-0.906-0.781-1.25c-0.338-0.342-0.748-0.604-1.232-0.786
			c-0.483-0.182-1.028-0.272-1.635-0.272c-0.607,0-1.152,0.091-1.636,0.272c-0.484,0.182-0.896,0.444-1.236,0.786
			c-0.341,0.344-0.603,0.76-0.786,1.25c-0.183,0.49-0.274,1.045-0.274,1.662c0,0.618,0.092,1.172,0.274,1.663
			c0.184,0.49,0.445,0.905,0.786,1.245s0.752,0.602,1.236,0.783c0.483,0.182,1.028,0.272,1.636,0.272
			c0.606,0,1.151-0.091,1.635-0.272c0.484-0.182,0.895-0.443,1.232-0.783s0.598-0.755,0.781-1.245
			C90.578,56.953,90.669,56.399,90.669,55.781z"/>
		<path fill="#808080" d="M97.374,59.683h4.962v1.729h-7.271V50.152h2.31V59.683z"/>
		<path fill="#808080" d="M108.639,59.722c0.445,0,0.846-0.067,1.197-0.202s0.648-0.324,0.889-0.568s0.425-0.54,0.554-0.889
			c0.129-0.348,0.192-0.736,0.192-1.168v-6.742h2.311v6.742c0,0.67-0.119,1.289-0.356,1.857s-0.579,1.059-1.022,1.472
			s-0.982,0.734-1.617,0.966c-0.637,0.23-1.352,0.346-2.146,0.346c-0.802,0-1.52-0.115-2.155-0.346
			c-0.636-0.231-1.175-0.553-1.618-0.966s-0.785-0.903-1.021-1.472c-0.238-0.568-0.357-1.188-0.357-1.857v-6.742h2.311v6.734
			c0,0.432,0.064,0.82,0.193,1.168c0.128,0.348,0.314,0.646,0.558,0.893c0.243,0.246,0.541,0.438,0.893,0.572
			C107.793,59.654,108.191,59.722,108.639,59.722z"/>
		<path fill="#808080" d="M125.062,50.152v1.721h-3.743v9.538h-2.31v-9.538h-3.743v-1.721H125.062z"/>
		<path fill="#808080" d="M129.011,61.411h-2.318V50.152h2.318V61.411z"/>
		<path fill="#808080" d="M143.623,55.781c0,0.826-0.15,1.59-0.451,2.293c-0.3,0.704-0.725,1.313-1.274,1.826
			s-1.211,0.915-1.983,1.203s-1.631,0.432-2.575,0.432c-0.938,0-1.795-0.144-2.567-0.432s-1.436-0.689-1.987-1.203
			c-0.553-0.514-0.98-1.122-1.283-1.826c-0.304-0.703-0.455-1.467-0.455-2.293c0-0.824,0.151-1.59,0.455-2.293
			c0.303-0.703,0.73-1.312,1.283-1.826c0.552-0.514,1.215-0.914,1.987-1.203c0.772-0.287,1.629-0.432,2.567-0.432
			c0.629,0,1.222,0.066,1.777,0.199c0.555,0.132,1.064,0.318,1.527,0.561c0.464,0.241,0.881,0.534,1.25,0.879
			c0.369,0.346,0.682,0.731,0.939,1.156c0.258,0.426,0.454,0.889,0.588,1.387C143.556,54.707,143.623,55.231,143.623,55.781z
			 M141.262,55.781c0-0.617-0.091-1.172-0.274-1.662s-0.443-0.906-0.781-1.25c-0.338-0.342-0.748-0.604-1.231-0.786
			c-0.484-0.182-1.029-0.272-1.636-0.272c-0.607,0-1.152,0.091-1.636,0.272s-0.896,0.444-1.236,0.786
			c-0.341,0.344-0.603,0.76-0.785,1.25c-0.184,0.49-0.275,1.045-0.275,1.662c0,0.618,0.092,1.172,0.275,1.663
			c0.183,0.49,0.444,0.905,0.785,1.245s0.753,0.602,1.236,0.783s1.028,0.272,1.636,0.272c0.606,0,1.151-0.091,1.636-0.272
			c0.483-0.182,0.894-0.443,1.231-0.783s0.598-0.755,0.781-1.245C141.171,56.953,141.262,56.399,141.262,55.781z"/>
		<path fill="#808080" d="M147.122,50.164c0.071,0.008,0.134,0.023,0.188,0.047c0.054,0.023,0.107,0.057,0.158,0.102
			c0.052,0.043,0.109,0.102,0.172,0.174l6.508,7.537c-0.017-0.182-0.031-0.359-0.043-0.537c-0.012-0.176-0.017-0.34-0.017-0.49
			v-6.844h2.034v11.259h-1.185c-0.184,0-0.336-0.027-0.459-0.082c-0.124-0.054-0.242-0.146-0.356-0.276l-6.482-7.498
			c0.018,0.166,0.03,0.331,0.039,0.494c0.009,0.164,0.013,0.313,0.013,0.448v6.914h-2.034V50.152h1.21
			C146.966,50.152,147.05,50.156,147.122,50.164z"/>
		<path fill="#808080" d="M165.498,52.199c-0.068,0.109-0.142,0.189-0.219,0.238s-0.173,0.074-0.288,0.074
			c-0.12,0-0.25-0.041-0.391-0.121c-0.14-0.08-0.308-0.17-0.502-0.269s-0.422-0.188-0.683-0.269s-0.568-0.121-0.923-0.121
			c-0.32,0-0.601,0.035-0.842,0.105c-0.24,0.07-0.441,0.168-0.604,0.292s-0.285,0.274-0.365,0.448s-0.12,0.364-0.12,0.572
			c0,0.264,0.082,0.484,0.245,0.661c0.162,0.177,0.379,0.327,0.647,0.452c0.27,0.124,0.575,0.236,0.919,0.334
			c0.344,0.1,0.695,0.204,1.056,0.316c0.36,0.111,0.713,0.24,1.057,0.389c0.343,0.148,0.649,0.335,0.918,0.561
			c0.27,0.226,0.485,0.502,0.648,0.829s0.245,0.725,0.245,1.191c0,0.509-0.097,0.985-0.288,1.429s-0.472,0.831-0.841,1.16
			c-0.369,0.33-0.82,0.59-1.353,0.779s-1.142,0.283-1.829,0.283c-0.395,0-0.784-0.035-1.167-0.104c-0.384-0.07-0.751-0.17-1.104-0.3
			c-0.352-0.13-0.683-0.285-0.991-0.467c-0.31-0.182-0.584-0.385-0.824-0.607l0.678-1.005c0.058-0.073,0.132-0.134,0.224-0.183
			c0.091-0.049,0.188-0.074,0.292-0.074c0.143,0,0.297,0.053,0.463,0.16c0.166,0.105,0.363,0.225,0.593,0.354
			c0.229,0.13,0.496,0.248,0.803,0.354s0.674,0.159,1.104,0.159c0.657,0,1.167-0.141,1.527-0.424
			c0.361-0.283,0.541-0.689,0.541-1.219c0-0.296-0.081-0.537-0.244-0.725c-0.163-0.187-0.38-0.344-0.648-0.471
			s-0.575-0.234-0.919-0.322c-0.343-0.089-0.692-0.186-1.047-0.289c-0.355-0.104-0.704-0.229-1.048-0.373
			c-0.343-0.146-0.649-0.335-0.918-0.568c-0.27-0.234-0.485-0.525-0.648-0.877c-0.163-0.35-0.245-0.782-0.245-1.296
			c0-0.41,0.091-0.81,0.271-1.199c0.181-0.39,0.442-0.734,0.786-1.036c0.343-0.301,0.767-0.541,1.271-0.723
			c0.503-0.182,1.082-0.273,1.734-0.273c0.732,0,1.407,0.104,2.025,0.312s1.146,0.499,1.58,0.872L165.498,52.199z"/>
	</g>
	<g>
		<g>
			<g>
				<path fill="#DCA927" d="M151.979,29.333l-2.428-2.465c0,0,2.428-2.205,4.855,0L151.979,29.333z"/>
			</g>
		</g>
		<g>
			<g>
				<path fill="#DCA927" d="M148.806,24.621l-1.624-1.105c0,0,4.473-3.041,9.596,0l-1.575,1.105
					C155.202,24.621,152.404,22.485,148.806,24.621z"/>
			</g>
		</g>
		<g>
			<g>
				<path fill="#DCA927" d="M146.53,21.764l-2.789-1.6c0,0,7.681-4.405,16.477,0l-2.704,1.6
					C157.514,21.764,152.709,18.67,146.53,21.764z"/>
			</g>
		</g>
	</g>
	<g>
		<path fill="#0D72B9" d="M39.184,8h-5.566L11.27,62h4.26c0.474,0,0.871-0.538,1.193-0.804c0.321-0.265,0.539-0.771,0.653-1.112
			l6.619-16.465L35.179,16.16c0.209-0.492,1.004-3.09,1.193-3.828c0.208,0.738,1.013,3.272,1.222,3.764l6.39,16.55l5.339,13.8
			c0.153,0.378,0.379,0.815,0.683,1.06c0.303,0.248,0.7,0.494,1.192,0.494h4.261L39.184,8z"/>
	</g>
	<g>
		<polygon fill="#DCA927" points="8.285,41.363 6.854,39.239 27.774,25.141 47.092,33.629 56.966,19.088 59.085,20.527 
			48.013,36.832 28.036,28.053 		"/>
	</g>
	<g>
		<g>
			<path fill="#F3F2F2" d="M27.81,30.566c-1.906,0-3.457-1.551-3.457-3.458c0-1.906,1.551-3.457,3.457-3.457
				c1.907,0,3.458,1.55,3.458,3.457C31.268,29.015,29.717,30.566,27.81,30.566z"/>
		</g>
		<g>
			<g>
				<path fill="#DCA927" d="M27.81,24.932c1.202,0,2.178,0.975,2.178,2.176c0,1.203-0.976,2.178-2.178,2.178
					c-1.201,0-2.177-0.975-2.177-2.178C25.633,25.907,26.608,24.932,27.81,24.932 M27.81,22.371c-2.612,0-4.737,2.125-4.737,4.737
					c0,2.613,2.125,4.739,4.737,4.739c2.613,0,4.738-2.126,4.738-4.739C32.548,24.496,30.423,22.371,27.81,22.371L27.81,22.371z"/>
			</g>
		</g>
	</g>
	<g>
		<g>
			<path fill="#F3F2F2" d="M47.632,38.744c-1.906,0-3.457-1.551-3.457-3.458c0-1.907,1.551-3.458,3.457-3.458
				s3.457,1.551,3.457,3.458C51.089,37.193,49.538,38.744,47.632,38.744z"/>
		</g>
		<g>
			<g>
				<path fill="#DCA927" d="M47.632,33.108c1.201,0,2.177,0.976,2.177,2.178c0,1.202-0.976,2.177-2.177,2.177
					c-1.202,0-2.177-0.976-2.177-2.177C45.455,34.084,46.43,33.108,47.632,33.108 M47.632,30.547c-2.612,0-4.738,2.126-4.738,4.739
					c0,2.613,2.126,4.738,4.738,4.738s4.737-2.125,4.737-4.738C52.369,32.673,50.244,30.547,47.632,30.547L47.632,30.547z"/>
			</g>
		</g>
	</g>
	<g>
		<g>
			<path fill="#F3F2F2" d="M58.025,23.264c-1.906,0-3.458-1.551-3.458-3.457c0-1.906,1.552-3.456,3.458-3.456
				s3.457,1.55,3.457,3.456C61.482,21.713,59.932,23.264,58.025,23.264z"/>
		</g>
		<g>
			<g>
				<path fill="#DCA927" d="M58.025,17.631c1.202,0,2.177,0.975,2.177,2.176c0,1.202-0.975,2.177-2.177,2.177
					c-1.203,0-2.177-0.975-2.177-2.177C55.849,18.605,56.822,17.631,58.025,17.631 M58.025,15.07c-2.612,0-4.738,2.125-4.738,4.737
					c0,2.612,2.126,4.737,4.738,4.737s4.737-2.125,4.737-4.737C62.763,17.195,60.638,15.07,58.025,15.07L58.025,15.07z"/>
			</g>
		</g>
	</g>
	<g>
		<g>
			<path fill="#F3F2F2" d="M8.44,43.118c-1.906,0-3.457-1.55-3.457-3.456s1.551-3.457,3.457-3.457s3.457,1.551,3.457,3.457
				S10.347,43.118,8.44,43.118z"/>
		</g>
		<g>
			<g>
				<path fill="#DCA927" d="M8.44,37.485c1.202,0,2.177,0.975,2.177,2.177s-0.975,2.176-2.177,2.176
					c-1.203,0-2.177-0.974-2.177-2.176S7.237,37.485,8.44,37.485 M8.44,34.924c-2.612,0-4.737,2.125-4.737,4.738
					c0,2.611,2.125,4.736,4.737,4.736s4.738-2.125,4.738-4.736C13.179,37.049,11.053,34.924,8.44,34.924L8.44,34.924z"/>
			</g>
		</g>
	</g>
</g>
</svg>
